<?xml version="1.0" encoding="UTF-8"?>
<!-- Created with Inkscape (http://www.inkscape.org/) -->
<svg id="SVGRoot" width="32px" height="32px" version="1.1" viewBox="0 0 32 32" xmlns="http://www.w3.org/2000/svg" xmlns:cc="http://creativecommons.org/ns#" xmlns:dc="http://purl.org/dc/elements/1.1/" xmlns:rdf="http://www.w3.org/1999/02/22-rdf-syntax-ns#">
 <metadata>
  <rdf:RDF>
   <cc:Work rdf:about="">
    <dc:format>image/svg+xml</dc:format>
    <dc:type rdf:resource="http://purl.org/dc/dcmitype/StillImage"/>
    <dc:title/>
   </cc:Work>
  </rdf:RDF>
 </metadata>
 <g>
  <path d="m31 16a15 15 0 0 1-15 15 15 15 0 0 1-15-15 15 15 0 0 1 15-15 15 15 0 0 1 15 15z" fill="#5fd37d" stroke-width="1.1844"/>
  <g aria-label="c ">
   <path d="m17.44 25.12c2.016 0 4.096-0.736 5.696-2.176l-1.504-2.432c-1.056 0.896-2.368 1.6-3.84 1.6-2.944 0-4.96-2.464-4.96-6.176 0-3.744 2.112-6.24 5.056-6.24 1.216 0 2.208 0.512 3.168 1.376l1.824-2.4c-1.28-1.12-2.912-2.016-5.152-2.016-4.64 0-8.704 3.392-8.704 9.28 0 5.824 3.648 9.184 8.416 9.184z"/>
  </g>
 </g>
</svg>
